<?xml version="1.0" encoding="utf-8"?>
<!-- Generator: Adobe Illustrator 25.2.0, SVG Export Plug-In . SVG Version: 6.00 Build 0)  -->
<svg version="1.1" id="Layer_1" xmlns="http://www.w3.org/2000/svg" xmlns:xlink="http://www.w3.org/1999/xlink" x="0px" y="0px"
	 viewBox="0 0 32 32" style="enable-background:new 0 0 32 32;" xml:space="preserve">
<style type="text/css">
	.st0{fill:#041E42;}
</style>
<path class="st0" d="M31.6,17.7L27.4,5.2c-0.3-0.9-1.1-1.6-2-1.8L12.3,0.9C11.4,0.7,10.4,1,9.8,1.7l-8.9,10
	c-0.6,0.7-0.8,1.7-0.5,2.6l4.2,12.5c0.3,0.9,1.1,1.6,2,1.8l13.1,2.6c0.2,0,0.3,0,0.5,0c0.8,0,1.5-0.3,2-0.9l8.9-10
	C31.7,19.6,31.9,18.6,31.6,17.7z M26.5,5.5l2.8,8.2l-5.9-9.3c-0.1-0.2-0.3-0.4-0.5-0.5l2.3,0.4C25.8,4.5,26.3,4.9,26.5,5.5z
	 M22.2,27.1l-5.1,0.3l8.3-4.8l0,0l-2,3.8C23.2,26.8,22.7,27.1,22.2,27.1z M9.3,27.1l-2.9-4.6c0.1,0,0.1,0.1,0.2,0.1l8.3,4.8
	c0,0,0.1,0,0.1,0.1l-4.4,0.2C10.1,27.8,9.6,27.5,9.3,27.1z M9.8,4.9l5.1-0.3L6.6,9.4c0,0,0,0,0,0l2-3.8C8.8,5.2,9.3,4.9,9.8,4.9z
	 M22.6,5l2.9,4.5c-0.1,0-0.1-0.1-0.2-0.1L17,4.6c0,0-0.1,0-0.1-0.1l4.4-0.2C21.9,4.3,22.4,4.5,22.6,5L22.6,5z M25.5,20.8
	c0,0.4-0.2,0.8-0.6,1l-8.3,4.8c-0.4,0.2-0.8,0.2-1.1,0l-8.3-4.8c-0.3-0.2-0.6-0.6-0.6-1v-9.7c0-0.4,0.2-0.8,0.6-1l8.3-4.8
	c0.3-0.2,0.8-0.2,1.1,0l8.3,4.8c0.3,0.2,0.6,0.6,0.6,1L25.5,20.8z M5.6,21.2l-2.4-3.8c-0.3-0.4-0.3-1-0.1-1.4l2.4-4.6v9.5
	C5.6,21,5.6,21.1,5.6,21.2z M26.4,10.8l2.4,3.8c0.3,0.4,0.3,1,0.1,1.4l-2.4,4.6v-9.5C26.4,11,26.4,10.9,26.4,10.8z M10.5,2.4
	c0.3-0.4,0.8-0.6,1.3-0.6c0.1,0,0.2,0,0.3,0l8.2,1.6L9.7,3.9C9.5,4,9.2,4,8.9,4.1L10.5,2.4z M1.6,12.3l5.9-6.6l-5.1,9.8
	c-0.2,0.3-0.2,0.6-0.3,0.9L1.3,14C1.1,13.4,1.2,12.8,1.6,12.3L1.6,12.3z M5.5,26.5l-2.8-8.2l5.9,9.3c0.1,0.2,0.3,0.4,0.5,0.5
	l-2.3-0.4C6.2,27.5,5.7,27.1,5.5,26.5z M21.5,29.6c-0.4,0.5-1,0.7-1.6,0.5l-8.2-1.6l10.6-0.5c0.3,0,0.6-0.1,0.8-0.2L21.5,29.6z
	 M30.4,19.7l-5.9,6.6l5.1-9.8c0.2-0.3,0.2-0.6,0.3-0.9l0.8,2.4C30.9,18.6,30.8,19.2,30.4,19.7z"/>
</svg>
